<?xml version="1.0" standalone="no"?>
<!DOCTYPE svg PUBLIC "-//W3C//DTD SVG 20010904//EN"
 "http://www.w3.org/TR/2001/REC-SVG-20010904/DTD/svg10.dtd">
<svg version="1.0" xmlns="http://www.w3.org/2000/svg"
 width="315.000000pt" height="315.000000pt" viewBox="0 0 315.000000 315.000000"
 preserveAspectRatio="xMidYMid meet">

<g transform="translate(0.000000,315.000000) scale(0.100000,-0.100000)"
fill="#000000" stroke="none">
<path d="M0 1575 l0 -1575 1575 0 1575 0 0 1575 0 1575 -1575 0 -1575 0 0
-1575z m1832 1436 c307 -53 566 -187 789 -410 372 -372 517 -891 390 -1396
-154 -608 -674 -1050 -1299 -1104 -436 -38 -849 114 -1163 428 -213 214 -346
463 -406 758 -25 125 -25 434 0 553 122 569 527 1000 1079 1146 180 47 420 57
610 25z"/>
<path d="M1430 3000 c-343 -42 -639 -188 -879 -435 -432 -444 -531 -1099 -251
-1655 195 -388 559 -668 990 -761 88 -19 137 -23 295 -23 164 -1 204 2 294 22
293 66 518 189 726 397 168 168 279 344 350 558 51 155 66 237 72 412 4 135 2
179 -16 283 -90 528 -448 952 -953 1130 -178 63 -446 94 -628 72z m544 -904
c26 -8 63 -26 82 -41 l34 -26 58 16 c31 9 69 23 84 31 16 8 28 12 28 9 0 -16
-26 -54 -63 -92 l-40 -41 40 9 c22 4 53 13 68 19 15 6 30 9 32 6 6 -5 -117
-126 -129 -126 -4 0 -8 -30 -8 -68 0 -163 -92 -357 -229 -485 -209 -193 -526
-258 -811 -165 -61 20 -160 64 -160 72 0 2 33 4 73 4 108 2 201 26 285 75 l33
19 -63 22 c-35 11 -77 31 -93 44 -30 23 -85 97 -85 114 0 4 24 8 53 8 l52 0
-45 21 c-82 37 -140 109 -156 193 -7 38 -6 39 17 32 13 -3 37 -9 54 -13 l29
-6 -37 44 c-65 76 -82 181 -41 260 l15 30 67 -61 c106 -98 280 -176 434 -195
l55 -7 5 67 c7 83 44 147 112 193 79 53 159 65 250 38z"/>
</g>
</svg>
