<svg version="1.2" xmlns="http://www.w3.org/2000/svg" viewBox="0 0 117 108" width="117" height="108">
	<title>FA icon</title>
	<style>
		.s0 { fill: #ffffff;stroke: #dddddd;stroke-width: 2 } 
		.s1 { fill: #c0301c } 
	</style>
	<g id="FA icon">
		<path id="Ellipse 1" class="s0" d="m58 4c24.9 0 45 20.1 45 45 0 24.9-20.1 45-45 45-24.9 0-45-20.1-45-45 0-24.9 20.1-45 45-45z"/>
		<path id="fa-support" fill-rule="evenodd" class="s1" d="m82 48.9c0 13.2-10.8 24-24 24-13.3 0-24-10.8-24-24 0-13.3 10.7-24 24-24 13.2 0 24 10.7 24 24zm-24-20.6c3.5 0 6.8 0.9 9.7 2.4l-5.2 5.2c-1.5-0.5-2.9-0.8-4.5-0.8q-2.3 0.1-4.5 0.8l-5.2-5.2c2.9-1.5 6.2-2.4 9.7-2.4zm-18.2 30.2c-1.5-2.9-2.4-6.2-2.4-9.6 0-3.5 0.9-6.8 2.4-9.7l5.2 5.2c-0.4 1.4-0.7 2.9-0.7 4.5q0 2.3 0.7 4.4zm18.2 10.9c-3.5 0-6.8-0.9-9.7-2.4l5.2-5.2q2.2 0.8 4.5 0.8c1.6 0 3-0.3 4.5-0.8l5.2 5.2c-2.9 1.5-6.2 2.4-9.7 2.4zm0-10.3c-5.7 0-10.3-4.6-10.3-10.2 0-5.7 4.6-10.3 10.3-10.3 5.7 0 10.3 4.6 10.3 10.3 0 5.6-4.6 10.2-10.3 10.2zm13-5.8q0.7-2.1 0.7-4.4 0-2.4-0.7-4.5l5.1-5.2c1.6 2.9 2.5 6.2 2.5 9.7 0 3.4-0.9 6.7-2.5 9.6z"/>
	</g>
</svg>