<svg version="1.2" xmlns="http://www.w3.org/2000/svg" viewBox="0 0 53 13" width="53" height="13"><style>.s0{fill:#c0301c}.s1{fill:#dddddd}</style><path class="s0" d="m6.5 0c3.6 0 6.5 2.9 6.5 6.5c0 3.6-2.9 6.5-6.5 6.5c-3.6 0-6.5-2.9-6.5-6.5c0-3.6 2.9-6.5 6.5-6.5z" /><path class="s1" d="m26.5 0c3.6 0 6.5 2.9 6.5 6.5c0 3.6-2.9 6.5-6.5 6.5c-3.6 0-6.5-2.9-6.5-6.5c0-3.6 2.9-6.5 6.5-6.5z" /><path class="s1" d="m46.5 0c3.6 0 6.5 2.9 6.5 6.5c0 3.6-2.9 6.5-6.5 6.5c-3.6 0-6.5-2.9-6.5-6.5c0-3.6 2.9-6.5 6.5-6.5z" /></svg>